<svg xmlns="http://www.w3.org/2000/svg" xmlns:xlink="http://www.w3.org/1999/xlink" viewBox="0 0 1059 752.24"><defs><style>.cls-1{fill:none;}.cls-1,.cls-4{stroke:#ffe14a;stroke-miterlimit:10;stroke-width:3px;}.cls-2{font-size:12px;fill:#f6f6f6;font-family:MyriadPro-Regular, Myriad Pro;}.cls-3{letter-spacing:-0.03em;}.cls-4{fill:#3c3c3b;}</style></defs><g id="Livello_2" data-name="Livello 2"><g id="Livello_2-2" data-name="Livello 2"><image width="5760" height="2412" transform="translate(369.72 752.24) rotate(-90) scale(0.13)" xlink:href="../../../../Downloads/shot0002.png"/><path class="cls-1" d="M792.18,43.56h242.65a22.68,22.68,0,0,1,22.68,22.68v119a19.84,19.84,0,0,1-19.84,19.84H769.5a0,0,0,0,1,0,0V66.24A22.68,22.68,0,0,1,792.18,43.56Z"/><text class="cls-2" transform="translate(781.92 65.63)">TES<tspan class="cls-3" x="17.78" y="0">T</tspan><tspan x="23.42" y="0">O FR</tspan></text><line class="cls-4" x1="769.5" y1="205.07" x2="646.39" y2="275.09"/><path class="cls-1" d="M792.18,322.92h242.65a22.68,22.68,0,0,1,22.68,22.68V461.75a22.68,22.68,0,0,1-22.68,22.68H769.5a0,0,0,0,1,0,0V345.6A22.68,22.68,0,0,1,792.18,322.92Z"/><text class="cls-2" transform="translate(781.92 345)">TES<tspan class="cls-3" x="17.78" y="0">T</tspan><tspan x="23.42" y="0">O BR</tspan></text><line class="cls-4" x1="769.5" y1="484.43" x2="646.39" y2="554.45"/><path class="cls-1" d="M1.5,43.56H266.82A22.68,22.68,0,0,1,289.5,66.24V182.39a22.68,22.68,0,0,1-22.68,22.68H24.18A22.68,22.68,0,0,1,1.5,182.39V43.56A0,0,0,0,1,1.5,43.56Z" transform="translate(291 248.63) rotate(-180)"/><text class="cls-2" transform="translate(11.66 65.63)">TES<tspan class="cls-3" x="17.78" y="0">T</tspan><tspan x="23.42" y="0">O FR</tspan></text><line class="cls-4" x1="289.5" y1="205.07" x2="412.61" y2="275.09"/><path class="cls-1" d="M1.5,322.92H266.82A22.68,22.68,0,0,1,289.5,345.6V461.75a22.68,22.68,0,0,1-22.68,22.68H24.18A22.68,22.68,0,0,1,1.5,461.75V322.92a0,0,0,0,1,0,0Z" transform="translate(291 807.35) rotate(-180)"/><text class="cls-2" transform="translate(11.66 345)">TES<tspan class="cls-3" x="17.78" y="0">T</tspan><tspan x="23.42" y="0">O BR</tspan></text><line class="cls-4" x1="289.5" y1="484.43" x2="412.61" y2="554.45"/></g></g></svg>